<?xml version="1.0" encoding="UTF-8"?>
<svg xmlns="http://www.w3.org/2000/svg" version="1.1" width="400" height="400" viewBox="0 0 400 400"><rect x="0" y="0" width="400" height="400" fill="#fefefe"/><g transform="scale(10.811)"><g transform="translate(4,4)"><path fill-rule="evenodd" d="M11 0L11 1L8 1L8 3L9 3L9 2L11 2L11 5L12 5L12 7L13 7L13 5L14 5L14 7L15 7L15 6L16 6L16 8L21 8L21 6L20 6L20 5L19 5L19 4L20 4L20 3L21 3L21 1L20 1L20 0L15 0L15 4L13 4L13 2L14 2L14 0ZM17 1L17 2L18 2L18 1ZM19 1L19 3L20 3L20 1ZM16 3L16 6L17 6L17 7L18 7L18 3ZM8 4L8 8L6 8L6 9L5 9L5 10L4 10L4 12L6 12L6 13L7 13L7 14L6 14L6 15L7 15L7 16L5 16L5 13L3 13L3 12L2 12L2 11L3 11L3 10L2 10L2 8L0 8L0 10L1 10L1 12L0 12L0 13L1 13L1 15L2 15L2 17L1 17L1 18L0 18L0 19L1 19L1 18L2 18L2 19L4 19L4 20L2 20L2 21L8 21L8 23L9 23L9 22L10 22L10 23L11 23L11 22L10 22L10 20L11 20L11 21L12 21L12 23L13 23L13 26L15 26L15 24L17 24L17 26L16 26L16 28L14 28L14 27L13 27L13 28L14 28L14 29L16 29L16 28L18 28L18 24L20 24L20 25L19 25L19 27L20 27L20 28L19 28L19 29L23 29L23 28L22 28L22 26L24 26L24 29L25 29L25 27L26 27L26 26L25 26L25 23L26 23L26 24L27 24L27 25L29 25L29 24L27 24L27 23L28 23L28 22L29 22L29 21L28 21L28 22L27 22L27 20L26 20L26 18L28 18L28 19L29 19L29 17L26 17L26 16L25 16L25 14L24 14L24 15L19 15L19 14L20 14L20 13L21 13L21 12L22 12L22 13L23 13L23 12L24 12L24 13L26 13L26 12L28 12L28 14L26 14L26 15L27 15L27 16L29 16L29 12L28 12L28 10L29 10L29 9L28 9L28 8L26 8L26 9L28 9L28 10L26 10L26 12L24 12L24 11L25 11L25 10L24 10L24 9L25 9L25 8L22 8L22 9L16 9L16 11L13 11L13 10L15 10L15 9L14 9L14 8L11 8L11 6L10 6L10 7L9 7L9 4ZM19 6L19 7L20 7L20 6ZM3 8L3 9L4 9L4 8ZM8 8L8 9L9 9L9 10L8 10L8 11L6 11L6 10L7 10L7 9L6 9L6 10L5 10L5 11L6 11L6 12L8 12L8 14L7 14L7 15L8 15L8 14L10 14L10 15L9 15L9 16L7 16L7 17L3 17L3 18L5 18L5 20L8 20L8 21L9 21L9 20L8 20L8 19L10 19L10 18L11 18L11 19L12 19L12 18L13 18L13 20L14 20L14 18L15 18L15 19L16 19L16 20L17 20L17 21L18 21L18 22L17 22L17 24L18 24L18 23L20 23L20 22L19 22L19 21L20 21L20 20L21 20L21 19L22 19L22 20L25 20L25 21L26 21L26 20L25 20L25 19L22 19L22 18L21 18L21 19L20 19L20 16L18 16L18 17L17 17L17 15L16 15L16 14L17 14L17 13L16 13L16 12L15 12L15 15L14 15L14 16L13 16L13 15L11 15L11 14L12 14L12 12L13 12L13 11L12 11L12 9L11 9L11 8L10 8L10 9L9 9L9 8ZM10 9L10 11L8 11L8 12L10 12L10 14L11 14L11 12L12 12L12 11L11 11L11 9ZM21 10L21 11L24 11L24 10ZM17 11L17 12L18 12L18 14L19 14L19 13L20 13L20 11ZM1 12L1 13L2 13L2 14L3 14L3 15L4 15L4 14L3 14L3 13L2 13L2 12ZM13 13L13 14L14 14L14 13ZM10 16L10 17L11 17L11 18L12 18L12 17L11 17L11 16ZM14 16L14 17L13 17L13 18L14 18L14 17L15 17L15 16ZM21 16L21 17L24 17L24 18L25 18L25 17L24 17L24 16ZM7 17L7 18L6 18L6 19L8 19L8 18L9 18L9 17ZM16 17L16 18L17 18L17 17ZM18 17L18 18L19 18L19 17ZM17 19L17 20L18 20L18 19ZM19 19L19 20L20 20L20 19ZM0 20L0 21L1 21L1 20ZM14 21L14 22L13 22L13 23L16 23L16 21ZM21 21L21 24L24 24L24 21ZM22 22L22 23L23 23L23 22ZM9 24L9 25L8 25L8 26L9 26L9 27L8 27L8 29L10 29L10 26L11 26L11 28L12 28L12 26L11 26L11 25L12 25L12 24ZM9 25L9 26L10 26L10 25ZM20 26L20 27L21 27L21 26ZM28 26L28 27L27 27L27 29L28 29L28 27L29 27L29 26ZM0 0L0 7L7 7L7 0ZM1 1L1 6L6 6L6 1ZM2 2L2 5L5 5L5 2ZM22 0L22 7L29 7L29 0ZM23 1L23 6L28 6L28 1ZM24 2L24 5L27 5L27 2ZM0 22L0 29L7 29L7 22ZM1 23L1 28L6 28L6 23ZM2 24L2 27L5 27L5 24Z" fill="#000000"/></g></g></svg>
