<?xml version="1.0" encoding="UTF-8"?>
<svg xmlns="http://www.w3.org/2000/svg" version="1.1" width="400" height="400" viewBox="0 0 400 400"><rect x="0" y="0" width="400" height="400" fill="#fefefe"/><g transform="scale(10.811)"><g transform="translate(4,4)"><path fill-rule="evenodd" d="M9 0L9 1L8 1L8 2L9 2L9 3L8 3L8 4L9 4L9 5L8 5L8 7L9 7L9 8L6 8L6 9L7 9L7 10L6 10L6 11L5 11L5 10L4 10L4 11L0 11L0 13L2 13L2 15L1 15L1 14L0 14L0 15L1 15L1 16L3 16L3 13L4 13L4 14L6 14L6 15L7 15L7 16L5 16L5 15L4 15L4 16L5 16L5 17L4 17L4 18L3 18L3 17L2 17L2 20L5 20L5 21L8 21L8 23L9 23L9 24L8 24L8 29L9 29L9 26L10 26L10 27L11 27L11 26L12 26L12 28L13 28L13 29L14 29L14 28L13 28L13 26L15 26L15 27L16 27L16 28L17 28L17 27L16 27L16 26L17 26L17 25L18 25L18 26L19 26L19 27L18 27L18 28L22 28L22 29L23 29L23 28L24 28L24 29L27 29L27 28L28 28L28 26L29 26L29 25L28 25L28 26L27 26L27 28L26 28L26 26L22 26L22 25L25 25L25 24L26 24L26 25L27 25L27 24L26 24L26 23L25 23L25 20L26 20L26 22L27 22L27 21L28 21L28 22L29 22L29 19L28 19L28 18L29 18L29 17L28 17L28 16L29 16L29 15L27 15L27 14L26 14L26 15L25 15L25 13L28 13L28 11L27 11L27 12L26 12L26 8L25 8L25 9L24 9L24 8L23 8L23 9L22 9L22 8L21 8L21 4L18 4L18 3L19 3L19 2L18 2L18 1L20 1L20 3L21 3L21 0L17 0L17 2L18 2L18 3L17 3L17 4L18 4L18 5L20 5L20 7L19 7L19 6L18 6L18 7L19 7L19 8L21 8L21 9L20 9L20 10L21 10L21 13L22 13L22 14L21 14L21 15L20 15L20 16L19 16L19 18L20 18L20 16L21 16L21 20L20 20L20 19L18 19L18 20L17 20L17 17L18 17L18 16L17 16L17 17L16 17L16 16L15 16L15 17L14 17L14 16L13 16L13 15L16 15L16 14L17 14L17 13L18 13L18 15L19 15L19 14L20 14L20 13L18 13L18 12L20 12L20 11L19 11L19 10L17 10L17 9L18 9L18 8L15 8L15 9L14 9L14 8L13 8L13 6L14 6L14 7L15 7L15 6L16 6L16 7L17 7L17 6L16 6L16 5L15 5L15 6L14 6L14 5L13 5L13 4L14 4L14 3L13 3L13 2L14 2L14 1L15 1L15 2L16 2L16 1L15 1L15 0ZM9 1L9 2L10 2L10 1ZM11 1L11 2L13 2L13 1ZM9 3L9 4L10 4L10 5L9 5L9 7L10 7L10 8L9 8L9 9L8 9L8 11L6 11L6 12L7 12L7 13L6 13L6 14L7 14L7 15L8 15L8 17L9 17L9 19L8 19L8 18L7 18L7 17L5 17L5 18L4 18L4 19L6 19L6 20L8 20L8 21L9 21L9 20L10 20L10 21L12 21L12 22L9 22L9 23L10 23L10 25L13 25L13 24L14 24L14 25L15 25L15 26L16 26L16 25L15 25L15 23L12 23L12 22L16 22L16 21L17 21L17 24L18 24L18 25L19 25L19 26L20 26L20 27L22 27L22 28L23 28L23 27L22 27L22 26L21 26L21 25L20 25L20 23L19 23L19 22L20 22L20 20L18 20L18 21L17 21L17 20L15 20L15 21L12 21L12 20L14 20L14 19L15 19L15 18L16 18L16 17L15 17L15 18L14 18L14 17L13 17L13 16L12 16L12 15L13 15L13 14L14 14L14 13L15 13L15 14L16 14L16 13L17 13L17 12L18 12L18 11L17 11L17 12L16 12L16 13L15 13L15 11L13 11L13 10L14 10L14 9L13 9L13 8L12 8L12 6L13 6L13 5L11 5L11 4L13 4L13 3ZM15 3L15 4L16 4L16 3ZM10 6L10 7L11 7L11 6ZM0 8L0 10L2 10L2 9L5 9L5 8ZM10 8L10 10L9 10L9 12L8 12L8 13L7 13L7 14L8 14L8 13L10 13L10 12L11 12L11 10L13 10L13 9L11 9L11 8ZM27 8L27 9L28 9L28 10L29 10L29 9L28 9L28 8ZM15 9L15 10L16 10L16 9ZM23 9L23 10L22 10L22 11L24 11L24 9ZM12 11L12 12L13 12L13 13L11 13L11 14L9 14L9 15L10 15L10 16L9 16L9 17L10 17L10 18L12 18L12 19L13 19L13 17L10 17L10 16L11 16L11 14L13 14L13 13L14 13L14 12L13 12L13 11ZM2 12L2 13L3 13L3 12ZM4 12L4 13L5 13L5 12ZM22 12L22 13L24 13L24 12ZM23 15L23 16L22 16L22 17L24 17L24 16L25 16L25 18L27 18L27 17L26 17L26 16L27 16L27 15L26 15L26 16L25 16L25 15ZM0 17L0 21L1 21L1 17ZM6 18L6 19L7 19L7 18ZM22 18L22 19L23 19L23 18ZM26 19L26 20L28 20L28 19ZM18 21L18 22L19 22L19 21ZM21 21L21 24L24 24L24 21ZM22 22L22 23L23 23L23 22ZM11 23L11 24L12 24L12 23ZM24 27L24 28L25 28L25 27ZM10 28L10 29L11 29L11 28ZM0 0L0 7L7 7L7 0ZM1 1L1 6L6 6L6 1ZM2 2L2 5L5 5L5 2ZM22 0L22 7L29 7L29 0ZM23 1L23 6L28 6L28 1ZM24 2L24 5L27 5L27 2ZM0 22L0 29L7 29L7 22ZM1 23L1 28L6 28L6 23ZM2 24L2 27L5 27L5 24Z" fill="#000000"/></g></g></svg>
