<?xml version="1.0" encoding="UTF-8"?>
<svg xmlns="http://www.w3.org/2000/svg" version="1.1" width="400" height="400" viewBox="0 0 400 400"><rect x="0" y="0" width="400" height="400" fill="#fefefe"/><g transform="scale(10.811)"><g transform="translate(4,4)"><path fill-rule="evenodd" d="M8 0L8 1L10 1L10 2L9 2L9 6L8 6L8 8L9 8L9 6L10 6L10 7L11 7L11 6L12 6L12 8L11 8L11 10L10 10L10 9L9 9L9 10L8 10L8 11L7 11L7 10L6 10L6 11L5 11L5 8L3 8L3 10L4 10L4 11L2 11L2 10L1 10L1 9L2 9L2 8L0 8L0 11L1 11L1 13L0 13L0 21L4 21L4 20L5 20L5 19L4 19L4 20L3 20L3 18L4 18L4 15L5 15L5 14L6 14L6 15L7 15L7 16L5 16L5 18L6 18L6 19L7 19L7 20L6 20L6 21L7 21L7 20L8 20L8 19L9 19L9 18L10 18L10 19L12 19L12 18L13 18L13 20L14 20L14 22L13 22L13 21L11 21L11 20L9 20L9 21L8 21L8 22L10 22L10 23L9 23L9 24L8 24L8 26L9 26L9 27L8 27L8 29L10 29L10 28L9 28L9 27L10 27L10 26L12 26L12 28L11 28L11 29L12 29L12 28L13 28L13 29L15 29L15 28L16 28L16 27L17 27L17 25L16 25L16 24L14 24L14 25L15 25L15 27L14 27L14 26L12 26L12 25L13 25L13 23L14 23L14 22L15 22L15 23L17 23L17 24L18 24L18 22L19 22L19 23L20 23L20 24L19 24L19 25L18 25L18 26L19 26L19 25L20 25L20 26L21 26L21 25L25 25L25 26L23 26L23 27L22 27L22 29L26 29L26 28L27 28L27 27L28 27L28 28L29 28L29 23L27 23L27 22L28 22L28 20L29 20L29 18L27 18L27 19L26 19L26 20L25 20L25 16L27 16L27 17L28 17L28 16L27 16L27 14L28 14L28 15L29 15L29 14L28 14L28 13L29 13L29 11L28 11L28 12L27 12L27 13L25 13L25 12L26 12L26 11L27 11L27 10L28 10L28 9L29 9L29 8L28 8L28 9L24 9L24 10L23 10L23 11L24 11L24 12L20 12L20 11L22 11L22 10L20 10L20 11L19 11L19 10L18 10L18 11L17 11L17 10L16 10L16 7L17 7L17 6L18 6L18 7L19 7L19 6L18 6L18 5L20 5L20 7L21 7L21 5L20 5L20 4L21 4L21 2L20 2L20 1L19 1L19 0L18 0L18 1L17 1L17 0L16 0L16 1L17 1L17 2L16 2L16 4L17 4L17 5L16 5L16 7L15 7L15 6L14 6L14 5L15 5L15 3L14 3L14 2L15 2L15 1L14 1L14 2L13 2L13 4L12 4L12 5L10 5L10 4L11 4L11 3L12 3L12 2L11 2L11 1L10 1L10 0ZM12 0L12 1L13 1L13 0ZM18 1L18 2L17 2L17 3L18 3L18 4L20 4L20 3L18 3L18 2L19 2L19 1ZM10 2L10 3L11 3L11 2ZM13 4L13 5L14 5L14 4ZM13 6L13 7L14 7L14 6ZM6 8L6 9L7 9L7 8ZM12 8L12 9L13 9L13 10L12 10L12 13L14 13L14 14L13 14L13 15L12 15L12 14L11 14L11 13L9 13L9 14L8 14L8 13L6 13L6 14L7 14L7 15L9 15L9 14L11 14L11 15L10 15L10 17L11 17L11 18L12 18L12 17L13 17L13 18L14 18L14 17L13 17L13 16L14 16L14 14L15 14L15 13L14 13L14 12L17 12L17 16L16 16L16 19L14 19L14 20L15 20L15 21L16 21L16 22L18 22L18 21L19 21L19 22L20 22L20 21L19 21L19 20L20 20L20 19L19 19L19 16L22 16L22 17L20 17L20 18L23 18L23 19L24 19L24 17L23 17L23 16L25 16L25 15L23 15L23 14L22 14L22 15L21 15L21 14L20 14L20 13L19 13L19 12L17 12L17 11L15 11L15 8ZM17 8L17 9L18 9L18 8ZM19 8L19 9L20 9L20 8ZM22 8L22 9L23 9L23 8ZM13 10L13 11L14 11L14 10ZM6 11L6 12L7 12L7 11ZM8 11L8 12L11 12L11 11ZM2 12L2 14L1 14L1 15L2 15L2 14L3 14L3 13L4 13L4 14L5 14L5 13L4 13L4 12ZM18 13L18 15L20 15L20 14L19 14L19 13ZM11 15L11 17L12 17L12 15ZM1 16L1 17L2 17L2 18L3 18L3 17L2 17L2 16ZM7 16L7 17L6 17L6 18L9 18L9 16ZM17 17L17 19L16 19L16 21L18 21L18 20L19 20L19 19L18 19L18 17ZM17 19L17 20L18 20L18 19ZM21 19L21 20L22 20L22 19ZM10 21L10 22L11 22L11 21ZM21 21L21 24L24 24L24 21ZM25 21L25 23L26 23L26 25L28 25L28 24L27 24L27 23L26 23L26 22L27 22L27 21ZM22 22L22 23L23 23L23 22ZM11 23L11 24L10 24L10 25L9 25L9 26L10 26L10 25L11 25L11 24L12 24L12 23ZM25 26L25 27L24 27L24 28L25 28L25 27L27 27L27 26ZM13 27L13 28L14 28L14 27ZM18 27L18 28L17 28L17 29L18 29L18 28L20 28L20 29L21 29L21 28L20 28L20 27ZM0 0L0 7L7 7L7 0ZM1 1L1 6L6 6L6 1ZM2 2L2 5L5 5L5 2ZM22 0L22 7L29 7L29 0ZM23 1L23 6L28 6L28 1ZM24 2L24 5L27 5L27 2ZM0 22L0 29L7 29L7 22ZM1 23L1 28L6 28L6 23ZM2 24L2 27L5 27L5 24Z" fill="#000000"/></g></g></svg>
